<svg xmlns="http://www.w3.org/2000/svg" viewBox="0 0 32 34" width="92" height="92" role="img" aria-label="Frugl" style="display:block;filter:drop-shadow(0 10px 24px rgba(15,98,56,0.22))">
  <defs>
    <radialGradient id="frugl-app-skin" cx="38%" cy="28%" r="80%">
      <stop offset="0%" stop-color="#4cc285"/>
      <stop offset="55%" stop-color="#1f9d5c"/>
      <stop offset="100%" stop-color="#0f6238"/>
    </radialGradient>
  </defs>
  <circle cx="9.5" cy="9" r="6.2" fill="url(#frugl-app-skin)"/>
  <circle cx="22.5" cy="9" r="6.2" fill="url(#frugl-app-skin)"/>
  <path d="M4 17 C4 10.5 9 7 16 7 C23 7 28 10.5 28 17 L28 22 C28 28.5 23 31.5 16 31.5 C9 31.5 4 28.5 4 22 Z" fill="url(#frugl-app-skin)"/>
  <circle cx="9.5" cy="8.4" r="3.4" fill="#ffffff"/>
  <circle cx="22.5" cy="8.4" r="3.4" fill="#ffffff"/>
  <circle cx="10.2" cy="8.8" r="1.7" fill="#11261b"/>
  <circle cx="23.2" cy="8.8" r="1.7" fill="#11261b"/>
  <circle cx="9.4" cy="7.7" r="0.6" fill="#ffffff"/>
  <circle cx="22.4" cy="7.7" r="0.6" fill="#ffffff"/>
  <ellipse cx="11" cy="16" rx="3" ry="4" fill="#ffffff" fill-opacity="0.18"/>
  <path d="M11 22.5 C13.3 25 18.7 25 21 22.5" stroke="#0c4d2c" stroke-width="1.7" fill="none" stroke-linecap="round"/>
</svg>
